<svg xmlns="http://www.w3.org/2000/svg" viewBox="0 0 136.76 31.47"><defs><style>.cls-1,.cls-3{fill:#fff;}.cls-2{fill:#e380b2;}.cls-3{stroke:#e380b2;stroke-miterlimit:10;}</style></defs><g id="Calque_2" data-name="Calque 2"><g id="Calque_1-2" data-name="Calque 1"><path class="cls-1" d="M24.87,31C11.51,31,1.79,16.45,1.38,15.84L.9,15.11l.88,0c2.45-.12,4.8-.18,7-.18,13.92,0,22.47,2.38,25.4,7.07a6.62,6.62,0,0,1,.5,6.15l-.07.14-.13.07A19.27,19.27,0,0,1,24.87,31Z"/><path class="cls-2" d="M8.78,15.38c31.57,0,25.45,12.5,25.45,12.5a18.74,18.74,0,0,1-9.36,2.59C11.63,30.47,1.8,15.56,1.8,15.56c2.51-.12,4.83-.18,7-.18m0-1c-2.2,0-4.57.06-7,.18L0,14.65l1,1.46c.42.63,10.29,15.36,23.91,15.36a19.94,19.94,0,0,0,9.86-2.72l.26-.16.14-.27a7.15,7.15,0,0,0-.53-6.63c-3-4.85-11.71-7.31-25.82-7.31Z"/><path class="cls-1" d="M32.72,28.4C13.53,28.4,9.87,3,9.84,2.75l-.12-.87.81.34c20.58,8.69,25.6,15.72,26.19,20.09a6.6,6.6,0,0,1-2.19,5.93l-.12.1h-.16c-.52,0-1,0-1.53,0Z"/><path class="cls-2" d="M10.34,2.69C46.69,18,34.22,27.85,34.22,27.85c-.51,0-1,0-1.5,0-19,0-22.38-25.21-22.38-25.21M9.11,1.08l.23,1.74a45,45,0,0,0,4.18,12.93c4.4,8.6,11,13.15,19.2,13.15.51,0,1,0,1.56,0l.31,0,.25-.19a7.14,7.14,0,0,0,2.37-6.4C36.33,15.7,27.42,8.81,10.72,1.76L9.11,1.08Z"/><path class="cls-3" d="M33.43.28c13.07,19,.87,27.83.87,27.83H32.56s-12.2-8.82.87-27.83"/><path class="cls-1" d="M64.84,4V12.1A5.68,5.68,0,0,0,60,9.54a6.35,6.35,0,0,0-2.85.62A6,6,0,0,0,55,11.9a8.08,8.08,0,0,0-1.31,2.68A12.18,12.18,0,0,0,53.27,18a11.74,11.74,0,0,0,.53,3.69,8.33,8.33,0,0,0,1.46,2.76,6.35,6.35,0,0,0,2.23,1.73,6.72,6.72,0,0,0,2.86.6,5,5,0,0,0,4.56-2.43l0,2H69.1V4Zm-.88,18a3.22,3.22,0,0,1-2.61,1.3,3.18,3.18,0,0,1-2.66-1.38,5.79,5.79,0,0,1-1-3.57q0-5.05,3.72-5.06C63.8,13.23,65,15,65,18.55A5.2,5.2,0,0,1,64,21.94Z"/><path class="cls-1" d="M79,26.77a9.45,9.45,0,0,1-3.56-.64,7.37,7.37,0,0,1-2.64-1.76,7.51,7.51,0,0,1-1.65-2.73,10.26,10.26,0,0,1-.56-3.49,10.16,10.16,0,0,1,.58-3.52,7.66,7.66,0,0,1,1.68-2.73,7.5,7.5,0,0,1,2.64-1.74A9.43,9.43,0,0,1,79,9.54a9.23,9.23,0,0,1,3.46.62,7.36,7.36,0,0,1,2.61,1.73,7.5,7.5,0,0,1,1.66,2.71,10.25,10.25,0,0,1,.58,3.55,10.11,10.11,0,0,1-.58,3.54,7.67,7.67,0,0,1-1.66,2.71,7.27,7.27,0,0,1-2.63,1.75A9.24,9.24,0,0,1,79,26.77Zm0-3.63q4,0,4-5T79,13.2q-4,0-4,4.95T79,23.14Z"/><path class="cls-1" d="M99.55,26.33V24a5.53,5.53,0,0,1-5.08,2.73,5.68,5.68,0,0,1-2.25-.44,4.88,4.88,0,0,1-1.74-1.23,5.81,5.81,0,0,1-1.15-1.89,6.82,6.82,0,0,1-.42-2.46V10h4.33V20.08q0,3.06,2.76,3.06a3.05,3.05,0,0,0,2.51-1.05,4.13,4.13,0,0,0,.85-2.67V10h4.28V26.33Z"/><path class="cls-1" d="M120.27,20.41a7,7,0,0,1-.81,2.6,7.08,7.08,0,0,1-1.65,2,7.32,7.32,0,0,1-2.28,1.3,8.05,8.05,0,0,1-2.77.47,8.32,8.32,0,0,1-3.05-.55,6.17,6.17,0,0,1-2.37-1.67,7.7,7.7,0,0,1-1.55-2.76,12,12,0,0,1-.55-3.84,11.61,11.61,0,0,1,.55-3.79,6.87,6.87,0,0,1,1.55-2.61A6.18,6.18,0,0,1,109.75,10a9.44,9.44,0,0,1,3.14-.5,9.56,9.56,0,0,1,2.91.43,6.73,6.73,0,0,1,2.29,1.27,6,6,0,0,1,1.55,2,6.83,6.83,0,0,1,.66,2.6H116a2.94,2.94,0,0,0-1-2,3.07,3.07,0,0,0-2.07-.72,3.66,3.66,0,0,0-1.3.23,2.57,2.57,0,0,0-1,.79,3.9,3.9,0,0,0-.71,1.46,8,8,0,0,0-.27,2.24,6.7,6.7,0,0,0,1,4,2.77,2.77,0,0,0,2.23,1.3,3.35,3.35,0,0,0,2.16-.7,2.74,2.74,0,0,0,1-2Z"/><path class="cls-1" d="M125.49,19.28a4.69,4.69,0,0,0,1.08,3,3.3,3.3,0,0,0,2.58,1.1,3.65,3.65,0,0,0,1.88-.48,2.21,2.21,0,0,0,1.05-1.35h4.45a7.18,7.18,0,0,1-2.66,3.89,7.52,7.52,0,0,1-4.52,1.37q-8.17,0-8.18-8.92a10.49,10.49,0,0,1,.53-3.42,7.28,7.28,0,0,1,1.55-2.63,6.7,6.7,0,0,1,2.47-1.68,9.24,9.24,0,0,1,3.36-.58A6.92,6.92,0,0,1,134.82,12c1.3,1.62,1.94,4.06,1.94,7.31Zm6.82-2.72A4.44,4.44,0,0,0,132,15a3.28,3.28,0,0,0-.75-1.13,3,3,0,0,0-1.06-.67A3.7,3.7,0,0,0,129,13a3.08,3.08,0,0,0-2.25.94,4.1,4.1,0,0,0-1.08,2.65Z"/></g></g></svg>