<svg xmlns="http://www.w3.org/2000/svg" viewBox="0 0 372.8 362.76"><defs><style>.cls-1,.cls-15{fill:#fff;}.cls-11,.cls-2{fill:#e380b2;}.cls-3{fill:#eaa4c9;}.cls-4{fill:#b588bd;}.cls-5{fill:#b5a8d3;}.cls-6{fill:#a991c4;}.cls-7{fill:#ce8fbe;}.cls-8{fill:#d58aba;}.cls-9{fill:#f5b3c3;}.cls-10{fill:#f3f8f0;}.cls-11{stroke:#fff;}.cls-11,.cls-15{stroke-miterlimit:10;}.cls-12{font-size:18px;fill:#1d1d1b;font-family:SegoeUI-Semibold, Segoe UI;font-weight:600;letter-spacing:0.03em;}.cls-13{letter-spacing:0.03em;}.cls-14{fill:#010101;}.cls-15{stroke:#1d1d1b;}</style></defs><g id="Calque_2" data-name="Calque 2"><g id="Calque_1-2" data-name="Calque 1"><path class="cls-1" d="M372.8,0V362.76H1.17v-222a4,4,0,0,1-.59-.18c.18-.82.38-1.65.59-2.46V8.79l-.08-.1.08-.06V0Z"/><path class="cls-2" d="M372.8,0V362.76H1.17v-222a4,4,0,0,1-.59-.18c.18-.82.38-1.65.59-2.46V8.79l-.08-.1.08-.06V0Z"/><path class="cls-3" d="M180.71,175v6.84h-9.48l-.19-.26c-.81-1.16-1.17-3.76-.44-4.66C173.24,173.59,177,173.64,180.71,175Z"/><path class="cls-3" d="M180.71,170a5.65,5.65,0,0,1-2-.06c-2-.84-4.25-1.51-5.75-2.93-.61-.58,0-3.82.88-4.3,2-1.08,4.53-1.19,6.85-1.69Z"/><path class="cls-3" d="M180.71,68.25c-.58.29-1.16.57-1.73.89-2.69,1.5-5.34,1.79-7.17-1.12-.62-1-.83-3.3-.22-3.82,2.3-1.94,5-3.18,7.9-.71a9,9,0,0,0,1.22.77Z"/><path class="cls-3" d="M180.71,55.28A40.67,40.67,0,0,1,174.24,54c-.39-.14-.39-3.32,0-3.45a39.6,39.6,0,0,1,6.47-1.27Z"/><path class="cls-3" d="M180.71,156a7.67,7.67,0,0,1-1.24-.74c-1.58-1.33-3.12-2.7-4.68-4.06l5.92-4.17Z"/><path class="cls-3" d="M98.93,181.81H90.59a8.9,8.9,0,0,1,4.57-.76A11.39,11.39,0,0,1,98.93,181.81Z"/><path class="cls-3" d="M22.08,181.81H9.31a4.08,4.08,0,0,1,0-2.6c.68-2.43,3.94-4.14,7-7.08,2.83,2.94,5.54,4.65,6.48,7.05A2.8,2.8,0,0,1,22.08,181.81Z"/><path class="cls-3" d="M3,177.49a4.37,4.37,0,0,1-1.79,3.94v-7.64C2.22,174.39,2.93,175.48,3,177.49Z"/><path class="cls-3" d="M81.33,181.81H68.89c1.27-1.85,4-2,6.52-1.82C78,179.84,80.33,180,81.33,181.81Z"/><path class="cls-3" d="M42.71,181.36c0,.15,0,.3,0,.45H29.1c0-.11,0-.23,0-.35,0-4.3,3.31-5.23,6.79-5.45C39.69,175.77,42.83,177.64,42.71,181.36Z"/><path class="cls-3" d="M61.88,181.81H49c.49-3.47,3.38-3.8,6.43-3.8S61.38,178.36,61.88,181.81Z"/><path class="cls-3" d="M37.91,172c-3.69.25-6.7-1.27-6.64-4.9.07-4,3.82-5,7.15-5s6.38,1.21,6.48,5.18C45,172.24,41,171.64,37.91,172Z"/><path class="cls-3" d="M136.72,171c3.82-.21,7.34.84,6.72,4.95-.29,1.91-3.75,4.35-6.07,4.73-3.34.55-7.45-.76-7.31-5.1C130.18,172.12,133.26,170.56,136.72,171Z"/><path class="cls-3" d="M79.09,165c1.92,1.81,5.22,3.45,5.46,5.46.49,4-3.4,5.47-6.64,5.27-3-.17-7-.52-6.91-5.19S74.86,166.12,79.09,165Z"/><path class="cls-3" d="M78.85,151.88c4.5.33,8,.19,8,4.72,0,4.68-4,5-7,5.18-3.23.19-7.07-1.24-6.71-5.3A4.91,4.91,0,0,1,78.85,151.88Z"/><path class="cls-3" d="M7.78,149.81c.07,3.39-2.89,5.33-6.51,5.16h-.1V144.48C4.89,145.34,7.7,146.34,7.78,149.81Z"/><path class="cls-3" d="M59.2,163c1.9,2,5.28,4,5.39,6.08.2,3.93-3.73,5.42-7,4.67-2.41-.55-6-2.79-6.22-4.63C50.8,164.91,55,164.62,59.2,163Z"/><path class="cls-3" d="M5.06,164.46c.16,3.23-1.82,4-3.89,4.23v-9.46C3.52,159.63,5.25,160.87,5.06,164.46Z"/><path class="cls-3" d="M117.69,179.07c-3.7-.4-7-.55-6.86-5.34.11-4.18,3-4.66,6-4.68,3.47,0,6.62,1.09,6.92,5.19C124.08,178.9,120.27,178.45,117.69,179.07Z"/><path class="cls-3" d="M96.93,176.94c-2.93.16-5.82-.12-6-4.28-.15-3.28,3.11-6.16,7.09-5.51,2.53.42,6,.66,5.86,4.92C103.71,176,102.5,177,96.93,176.94Z"/><path class="cls-3" d="M118.57,166l-5.69-6.09c2.15-1.62,4.13-4.22,6.48-4.62,3.09-.52,6.93.66,6.87,4.89C126.18,164,123,164.93,118.57,166Z"/><path class="cls-3" d="M145.74,163.55c-.37,2.58-3.66,3.2-6.51,3.27-3.17.08-6.47-1.26-6.29-5.21s3.25-4.79,6.69-4.59S146,157.72,145.74,163.55Z"/><path class="cls-3" d="M99.8,163c-3.16.28-6.13-.36-6.8-4.29-.4-2.35,4-6,6.92-5.38s6.75,1.08,6.75,5.06S103.47,163.15,99.8,163Z"/><path class="cls-3" d="M60.74,161c-3.88-1.51-6.86-1.69-6.81-6C54,150.5,57,150,60.27,150.12s7,1.29,6.33,5.07C66.22,157.41,62.8,159.1,60.74,161Z"/><path class="cls-3" d="M18.33,161.05c3.65-.22,6.64,0,6.68,4.59s-3.93,4.69-6.54,4.81c-3.07.14-7.1-1.16-6.85-5.14C11.84,161.86,14.93,160.31,18.33,161.05Z"/><path class="cls-3" d="M40.59,160.07c-2.89-2.78-5.59-4.24-6.35-6.39-1-2.87,2.83-6.14,6.42-5.45,2.8.53,7.07,1.05,6.07,5.36C46.24,155.7,43.37,157.26,40.59,160.07Z"/><path class="cls-3" d="M68.91,141.15c.31,4.86-3.82,4.95-6.39,4.59-2.34-.32-5.91-2.69-6.2-4.59-.58-3.76,3.19-5.14,6.35-4.91C65.4,136.45,69.41,136.3,68.91,141.15Z"/><path class="cls-3" d="M156.72,181.91c-3.16.29-6.56-.35-6.73-4.27s3.13-4.68,6.57-4.7,6.8.39,7,4.33S160.41,182.11,156.72,181.91Z"/><path class="cls-3" d="M9.68,136.14c-.26,1.88-3.72,4.14-6.1,4.69a4.91,4.91,0,0,1-2.41-.06,4,4,0,0,1-.59-.18c.18-.82.38-1.65.59-2.46v-6.9c.47-.38.93-.77,1.34-1.17l.81.15C7.55,131.08,10.13,133,9.68,136.14Z"/><path class="cls-3" d="M83.66,138.14c1.85.33,5.12.14,5.21,4.42s-3.64,5.16-6.36,5.17-6.72-.6-6.48-4.95C76.25,138.87,79.17,137.88,83.66,138.14Z"/><path class="cls-3" d="M122.58,152c-3.84-1.49-6.79-1.68-6.78-5.94s3.44-4.45,6-4.86c3.74-.62,8,2.7,6.81,5S124.65,150.14,122.58,152Z"/><path class="cls-3" d="M20.58,156c-3.44.2-6.67,0-6.47-4.56s3.63-4.24,6.77-4.36,6.09.22,6.1,4.42C27,156,23.84,156.17,20.58,156Z"/><path class="cls-3" d="M102.47,140.09c3.38-.21,6.55.13,6.32,4.63s-3.71,4.16-6.84,4.3-6-.37-6-4.48C95.91,139.93,99.17,139.94,102.47,140.09Z"/><path class="cls-3" d="M43,135.1c3.25-.27,6.78.45,6.69,4.33-.09,3.51-3.25,4.69-6.86,4.68-3.45,0-6.4-1.25-6.59-4.45C36,135.71,39.45,134.9,43,135.1Z"/><path class="cls-3" d="M141.39,154.87c-2.38-2.88-4.91-4.62-5.37-6.79-.91-4.31,2.62-4.92,5.93-5,3.55-.08,6.73,1.76,6.35,5C148.05,150.24,144.53,152,141.39,154.87Z"/><path class="cls-3" d="M159.08,168c-3.44.21-6.44-.28-6.27-4.72.16-4.17,3.15-4.33,6.3-4.21s6.53.18,6.56,4.56C165.71,168.18,162.32,168.06,159.08,168Z"/><path class="cls-3" d="M23.07,142c-3.61.23-6.16-.69-6-4.72s3.16-4.23,6.3-4.24c3.45,0,6.62.87,6.4,4.76S26.2,142.29,23.07,142Z"/><path class="cls-3" d="M161.75,145.07c3.35-.22,6.05.45,5.95,4.62-.1,3.81-2.63,4.33-5.77,4.35-3.35,0-6.91-.41-6.9-4.29C155,146.24,158.13,144.69,161.75,145.07Z"/><path class="cls-3" d="M103.62,136c-1.9-1.81-5.34-3.6-5.36-5.42,0-3.38,3.12-4.69,6.72-4.58,3.36.11,6,.67,5.83,4.75S107.73,135.22,103.62,136Z"/><path class="cls-3" d="M26,128.06c-3.27.27-6.69-.47-6.67-4.32,0-3.15,2.81-4.88,6.28-4.62,3,.23,6.2.14,6.38,4.3S29.45,128.29,26,128.06Z"/><path class="cls-3" d="M86.48,134c-3.86-1.5-8-.32-7.6-5.38.36-4.22,3.24-4.48,6.3-4.5s6.43,1.3,6,4.72C90.87,130.94,87.82,132.64,86.48,134Z"/><path class="cls-3" d="M144.38,140.19c-2.68-2.45-6-4-6.26-6-.49-3.77,3.32-5.37,6.31-4.81,2.32.44,4.22,3.09,6.31,4.75Z"/><path class="cls-3" d="M12,122l-6.3,6.6c-.48-.48-1-.92-1.49-1.34-1.1-.94-2.19-1.76-3-2.56v-6.24a6.94,6.94,0,0,1,4.85-1,3.75,3.75,0,0,1,1.39.52C9,118.85,10.47,120.74,12,122Z"/><path class="cls-3" d="M87.3,119.08c-3.15.17-6.82-.12-6-4.13.37-1.92,4.07-4.46,6.24-4.44s5.75,2.7,6.05,4.62C94.17,119.24,90.36,119.19,87.3,119.08Z"/><path class="cls-3" d="M45.55,119.25c2.69,2.63,6,4.35,6,6.23.16,3.11-2.72,4.72-6.21,4.63s-6.67-1.23-6.08-5.06C39.58,123.19,42.7,121.77,45.55,119.25Z"/><path class="cls-3" d="M124.62,126.14c2.7,2.57,5.61,4,5.91,5.89.66,4.1-3.22,5.28-6.11,4.77-2.36-.41-4.36-2.94-6.52-4.53Z"/><path class="cls-3" d="M113.72,117.35c-2.6,4.25-6.17,4.73-10,3-1.27-.59-3-3.13-2.61-3.77,1-1.75,2.68-3.72,4.48-4.23C109.63,111.18,112.66,112.85,113.72,117.35Z"/><path class="cls-3" d="M66,120.86c2.41,2.71,5.46,4.59,5.54,6.58.14,3.4-3.56,4.54-6.44,4.46s-6.58-1.39-5.79-5C59.71,124.85,63,123.41,66,120.86Z"/><path class="cls-3" d="M170.58,136.18c-1.88,4.06-5.36,4.58-8.82,3.63-1.58-.44-3.91-2.93-3.68-4,.36-1.75,2.36-4.06,4.06-4.46C166.13,130.39,169.6,131.68,170.58,136.18Z"/><path class="cls-3" d="M28,114.1c-3.4.24-6.07-.56-5.88-4.7.17-3.87,3.16-4.21,6-4.17s5.81.35,5.9,4.29C34.06,113.73,31.28,114.3,28,114.1Z"/><path class="cls-3" d="M127,114.15c3.28-.19,5.74.56,5.8,4.4s-3,4.64-5.7,4.38c-2.56-.25-6.36.1-6.23-4.42C121,114.28,123.88,114,127,114.15Z"/><path class="cls-3" d="M49.07,117.07c-3.88-1.42-7.19-1.32-7-5.61.13-3.88,3.11-4.19,5.88-4.23,3,0,6.55.49,5.82,4.53C53.36,113.75,50.69,115.31,49.07,117.07Z"/><path class="cls-3" d="M13.94,108.16c1.05,4.7-3.24,4.4-5.27,4.39-2.46,0-6.46,0-6.51-4.23S6,103.5,8.75,103.46C11,103.43,14.85,103.74,13.94,108.16Z"/><path class="cls-3" d="M62,113.46c-.29-4.26,2.61-4.24,5.49-4.31,3.09-.08,6.76-.05,6.15,4.06-.28,1.86-3.53,4.34-5.65,4.58S61.57,118,62,113.46Z"/><path class="cls-3" d="M167.2,127c-4.06-.76-6.35-1.7-6.43-5.44s2.68-4.35,5.25-4.35c3.18,0,6.77,1.12,6.39,4.94C172.23,124,169,125.43,167.2,127Z"/><path class="cls-3" d="M129.45,110.83c-2.64-2.55-5.76-4.16-6-6.08-.28-2.65,2-4.69,5.55-4.66s6.41,1.39,6.39,4.5C135.41,106.39,132.13,108.17,129.45,110.83Z"/><path class="cls-3" d="M110.42,108.1c-4.2-.76-6.51-1.74-6.53-5.52s3-4.74,5.33-4.16,4.38,3,6.55,4.58Z"/><path class="cls-3" d="M30.65,101.89c-2.77-2.39-6-3.82-6.21-5.64-.46-3.51,3.16-4.82,6-4.85s6.44,1.26,6.14,4.72C36.42,97.92,33.28,99.46,30.65,101.89Z"/><path class="cls-3" d="M90.89,106.16c-4.14-.84-7.42-1.5-6.67-5.14.4-1.92,3.73-4.47,5.73-4.46s3.93,2.9,5.89,4.52Z"/><path class="cls-3" d="M50.19,91.12c2.58,2.91,5.12,4.5,5.54,6.52.79,3.8-2.82,4.81-5.4,4.28-2.29-.47-4.21-2.76-6.3-4.25Z"/><path class="cls-3" d="M10.09,89.14c4.11.87,7,1.41,6.83,5.26-.14,3.48-2.89,3.92-5.77,3.76S4.39,98.55,5.3,94C5.67,92.14,8.42,90.75,10.09,89.14Z"/><path class="cls-3" d="M70.42,93.32l5.46,5.75c-1.9,1.65-3.7,4.47-5.73,4.64-2.41.22-6.61-.69-5.92-4.59C64.56,97.24,67.59,95.84,70.42,93.32Z"/><path class="cls-3" d="M146.82,126.23c-2.72-2.82-5.55-4.4-5.74-6.24-.39-3.77,3-3.86,5.92-3.89s5.91.49,5.48,3.83C152.24,121.82,149.5,123.39,146.82,126.23Z"/><path class="cls-3" d="M168.31,114.15l-5.5-6.69c2.17-1.42,4.33-3.9,6.5-3.92,1.78,0,3.58,2.92,5.38,4.54Z"/><path class="cls-3" d="M148.69,112.14c-2.61-2.67-5.46-4.24-5.5-5.9-.09-3.27,2.89-4.19,6-4.08,2.89.1,6.32.1,5.35,4.18C154.08,108.23,151.38,109.59,148.69,112.14Z"/><path class="cls-3" d="M111.79,95.07l-5.88-6.43c2.11-1.46,4.26-4.12,6.3-4s3.73,3,5.59,4.76C116.13,90.94,114.47,92.52,111.79,95.07Z"/><path class="cls-3" d="M12.83,86.06c-2.57-2.39-5.41-3.81-5.46-5.33-.13-3.55,2.82-4.54,6.15-4.52,3,0,5.9.78,5.23,4.1C18.36,82.21,15.47,83.61,12.83,86.06Z"/><path class="cls-3" d="M138.2,91.73c-2.16,1.11-4.47,3.3-6.41,3-2.14-.32-5.44-2.82-5.56-4.55-.21-3.08,3-4.6,6-3.85,2.21.55,4.12,2.28,6.17,3.49Z"/><path class="cls-3" d="M33,76.26c2.67,2.56,5.58,4,5.65,5.68.16,3.18-2.79,4.86-5.79,4.09-2.12-.54-3.88-2.47-5.81-3.78Z"/><path class="cls-3" d="M92.58,81.29c2.33,2.55,4.8,4,5,5.77.49,3.36-2.24,4.16-5.26,4.15s-6.22-.8-6-4C86.45,85.46,89.68,83.9,92.58,81.29Z"/><path class="cls-3" d="M58.54,85c-1.87,1-3.81,3-5.61,2.9-2.28-.15-6.22.19-5.88-4.12.31-3.8,3.48-4.69,6.33-4.36,1.86.21,3.52,2.23,5.27,3.45C58.62,83.61,58.58,84.32,58.54,85Z"/><path class="cls-3" d="M151.14,98.18l-5.33-6.1c2-1.29,3.94-3.59,5.89-3.58s4,2.31,5.92,3.61Z"/><path class="cls-3" d="M95.36,78.19C91.3,77.4,88.87,76.47,89,73c.12-3.15,2.49-3.88,5.28-3.77s6.26.06,5.38,4.17C99.27,75.23,96.86,76.62,95.36,78.19Z"/><path class="cls-3" d="M172.2,89.22c1.5,1.57,3.92,3,4.28,4.77.59,2.94-1.87,4.72-4.67,4-2.17-.55-5.38-2.05-5.75-3.67C165.32,91.15,168.08,90,172.2,89.22Z"/><path class="cls-3" d="M15.79,60.24c2.41,2.72,4.82,4.2,5,5.91.39,3.77-2.69,4.13-5.74,4.11-2.89,0-5.35-1.15-4.74-4.08C10.69,64.33,13.2,62.92,15.79,60.24Z"/><path class="cls-3" d="M133.19,82.31c-2.08-2.68-3.95-4-4.2-5.62-.57-3.62,2.66-4.53,5.13-4.23,2.13.27,6.3.05,5.4,3.92C139.07,78.3,136.16,79.65,133.19,82.31Z"/><path class="cls-3" d="M114.84,69.26c2.28,2.59,4.52,4,4.78,5.68.52,3.49-2.61,4.16-5.25,4.18s-5.89-.66-5.25-4.1C109.45,73.21,112.15,71.85,114.84,69.26Z"/><path class="cls-3" d="M72.2,91.13c-2.38-2.61-4.79-4-5-5.78-.47-3.46,2.72-4.09,5.35-4s5.86.74,5.15,4.23C77.32,87.33,74.75,88.66,72.2,91.13Z"/><path class="cls-3" d="M61.46,70.51c-2.08,1.23-4.13,3.35-6.24,3.41-1.7,0-4.41-2.06-5-3.8-1.36-3.76,2.55-4.5,4.68-4.49s4.32,2,6.48,3.06C61.39,69.3,61.42,69.9,61.46,70.51Z"/><path class="cls-3" d="M35.61,62,41,68.39c-1.94,1.28-3.73,3.1-5.86,3.69-2.68.74-5.32-.81-4.83-3.76C30.57,66.47,33,65,35.61,62Z"/><path class="cls-3" d="M153.94,84.07c-2.29-2.54-4.69-4-4.93-5.7-.46-3.46,2.71-3.94,5.36-4.07,3-.16,5.44,1.58,5.08,4.45C159.24,80.38,156.53,81.69,153.94,84.07Z"/><path class="cls-3" d="M96.74,64.9c-2-2.35-4.33-3.79-4.62-5.56-.49-3,1.91-4.06,4.79-4.07,3.2,0,5.88,1.32,5.63,4.47C102.42,61.29,99.45,62.61,96.74,64.9Z"/><path class="cls-3" d="M75.1,77.34l-5.73-5.78c1.92-1.43,3.75-3.75,5.8-4C76.59,67.45,79,70,79.6,71.78,79.93,72.75,77.36,74.68,75.1,77.34Z"/><path class="cls-3" d="M173.61,86.35c-2.29-3-4.32-4.52-4.69-6.37-.69-3.53,2.43-4.1,4.8-3.58,2,.44,3.78,2.2,5.66,3.37Z"/><path class="cls-3" d="M3.71,50.59c-.06,1-1.25,2-2.54,3V47.5C2.69,47.86,3.81,48.75,3.71,50.59Z"/><path class="cls-3" d="M99.31,50.84,94,45.31c1.91-1.32,3.8-3.6,5.75-3.66,1.64,0,3.37,2.48,5.06,3.87Z"/><path class="cls-3" d="M18.26,58.46l-5.19-5.8c1.62-1.44,3.21-4,4.86-4s4.08,2.13,4.78,3.89C23.08,53.48,20.52,55.58,18.26,58.46Z"/><path class="cls-3" d="M117.29,55.47c2.09,2.53,4.12,3.89,4.34,5.49.47,3.51-2.75,4.54-5.16,4-1.76-.37-3.08-2.85-4.6-4.39Z"/><path class="cls-3" d="M43.47,55.51c-2,.91-4.13,2.78-5.87,2.46S34.54,55.12,33,53.56c1.83-1.08,3.62-2.94,5.49-3,1.65-.06,3.38,1.85,5.07,2.89Z"/><path class="cls-3" d="M157.2,70l-6.15-5.18c1.73-1.49,3.37-4,5.24-4.19,1.67-.17,3.6,2.2,5.42,3.45Z"/><path class="cls-3" d="M119.49,41.79l5.2,5.56c-1.76,1.3-3.61,3.73-5.26,3.6-1.93-.15-3.69-2.53-5.52-4Z"/><path class="cls-3" d="M57.57,50.72c2.35,2.18,5,3.52,5.07,5,.13,3.4-3,4.15-5.64,3.45-1.84-.49-3.33-2.26-5-3.46Z"/><path class="cls-3" d="M136.14,68.29c-2-2.62-3.89-3.94-4.17-5.54-.66-3.83,2.4-3.43,4.89-3.47s5.62-.11,4.71,3.57C141.16,64.55,138.76,65.77,136.14,68.29Z"/><path class="cls-3" d="M77.62,63.14c-2.55-2.42-5.28-3.81-5.39-5.37-.2-2.93,2.62-4,5.24-3.36,1.9.5,3.54,2,5.29,3C81.37,59,80,60.55,77.62,63.14Z"/><path class="cls-3" d="M45.55,41.25c-1.74,1-3.59,3-5.18,2.78-1.9-.23-3.57-2.32-5.33-3.61,1.53-1.35,3-3.65,4.63-3.8,1.84-.17,3.86,1.61,5.81,2.54C45.5,39.86,45.53,40.55,45.55,41.25Z"/><path class="cls-3" d="M20.35,44l-5.26-5.21c1.8-1.41,3.52-3.76,5.43-3.93,1.67-.16,3.57,2.14,5.37,3.36Z"/><path class="cls-3" d="M6,36.88C4.39,38,2.9,39.39,1.17,40.07V32.22Z"/><path class="cls-3" d="M59.63,47c-2.16-2.2-4.32-3.37-4.45-4.74-.28-3.07,2.2-4.53,4.9-3.79,1.81.49,3.23,2.39,4.83,3.66Z"/><path class="cls-3" d="M139.58,54.05l-5.72-5.13c1.64-1.2,3.14-3,4.95-3.43,2.33-.51,5.36,0,4.8,3.52C143.38,50.48,141.54,51.7,139.58,54.05Z"/><path class="cls-3" d="M107.42,32.34c-1.78,1-3.7,2.95-5.29,2.71-1.89-.28-3.49-2.45-5.22-3.8,1.82-1.19,3.54-3.06,5.5-3.36,1.48-.22,3.27,1.55,4.92,2.44Z"/><path class="cls-3" d="M158.72,45.57l5,4.55c-1.62,1.38-3.16,3.68-4.91,3.87-1.53.16-3.3-2.07-5-3.25Z"/><path class="cls-3" d="M79.6,38.86l5.24,4.81c-1.64,1.2-3.13,3-5,3.47-2.76.68-5.12-.92-4.73-3.94C75.33,41.84,77.57,40.75,79.6,38.86Z"/><path class="cls-3" d="M141.26,39.73c-1.86-2-4-3.37-4.26-4.94-.46-3.58,2.85-3.82,5.05-3.24,1.74.45,3.07,2.52,4.59,3.87Z"/><path class="cls-3" d="M121.57,38.25c-2.18-2.37-3.44-3.76-4.7-5.14,1.67-1.24,3.34-3.45,5-3.45s3.25,2.27,4.87,3.54C125.37,34.55,124,35.89,121.57,38.25Z"/><path class="cls-3" d="M22.77,19.64,28,25c-1.78,1.1-3.61,3.1-5.34,3-1.56-.06-3-2.4-4.54-3.73Z"/><path class="cls-3" d="M48.2,26.34c-2.58,3.17-5.24,5.45-8.79,2.51-.88-.72-1-4.12-.16-4.85C42.7,20.91,45.47,23.1,48.2,26.34Z"/><path class="cls-3" d="M8,23,2.83,27.82l-1.66-1.7V20.43a3.44,3.44,0,0,1,1.88-.77C4.69,19.66,6.34,21.78,8,23Z"/><path class="cls-3" d="M61.28,32.2c-1.1-1.46-2.89-2.8-3.16-4.39-.54-3.32,2.47-3.65,4.54-3.25,1.57.3,3.83,2,4,3.31s-1.93,2.87-3,4.31Z"/><path class="cls-3" d="M163.37,18.09l5.22,4.2c-1.57,1.35-3.1,3.68-4.74,3.76s-3.35-2.13-5-3.33Z"/><path class="cls-3" d="M161.5,31.67c1.93,2.24,4.26,4,4,4.79-.65,1.57-2.78,3.71-4.07,3.56-1.65-.19-3.08-2.4-4.6-3.74Z"/><path class="cls-3" d="M82.37,35c-2-2.31-3.87-3.5-4.29-5.08-.75-2.83,1.37-4.1,3.83-3.41,1.81.51,3.31,2.11,5,3.22Z"/><path class="cls-3" d="M10,9.06,5.48,14.14c-2-2.41-3.14-3.89-4.31-5.35l-.08-.1.08-.06c1.47-1.09,3-3.05,4.37-2.94C7.1,5.81,8.53,7.85,10,9.06Z"/><path class="cls-3" d="M143.91,25.89l-4.84-5c1.56-1.14,3.18-3.28,4.66-3.18,1.73.11,3.32,2.17,5,3.38Z"/><path class="cls-3" d="M84.79,21,80,16c1.34-1.19,2.76-3.39,4-3.3,1.69.11,3.26,2,4.89,3.12Z"/><path class="cls-3" d="M25,5.63l5,5.45c-1.6,1.09-3.18,3-4.82,3-1.32.05-3.49-1.94-3.81-3.36C21.06,9.68,23.13,8.07,25,5.63Z"/><path class="cls-3" d="M65.17,19.16,60,13.84c1.57-1.14,3.1-3.06,4.73-3.15,1.32-.08,3.52,1.83,3.92,3.26C69,15,66.94,16.67,65.17,19.16Z"/><path class="cls-3" d="M109.38,18.49c-1.78.94-3.62,2.71-5.3,2.56a5.67,5.67,0,0,1-4-3.74c-.5-3.55,2.68-3,4.8-2.81,1.52.17,3,1.16,4.43,1.79Z"/><path class="cls-3" d="M8.29,0,8.2.12,8.08,0Z"/><path class="cls-3" d="M124.22,24l-4.35-4.67c1.41-1.26,2.94-3.64,4.21-3.51,1.67.17,3.14,2.31,4.7,3.61Z"/><path class="cls-3" d="M28.33,0a1.52,1.52,0,0,1-.58.13,1.93,1.93,0,0,1-.7-.13Z"/><path class="cls-3" d="M40.14,12.37c2.36-2.89,7.26-4.22,8.59-2.1a4.82,4.82,0,0,1,0,4.3C47.38,16.64,42.42,15.23,40.14,12.37Z"/><path class="cls-3" d="M141.4,6c1.75-.82,3.64-2.5,5.2-2.23s2.77,2.47,4.13,3.82c-1.46.94-2.93,2.64-4.38,2.62-1.68,0-3.34-1.55-5-2.42Z"/><path class="cls-3" d="M110.38,6.94A68,68,0,0,1,103,5.37c-.31-.09-.39-3,.1-3.2,1.72-.87,4-1.93,5.57-1.42,1.29.42,1.9,3,2.81,4.57Z"/><path class="cls-3" d="M166.28,13.27l-4.47-4.14c1.46-1.23,2.92-3.41,4.39-3.42s3,2.13,4.47,3.33Z"/><path class="cls-3" d="M50.39,0,47.53,3.1l-3-3.1Z"/><path class="cls-3" d="M91.5,2.7c-1.39.9-2.81,2.54-4.16,2.48-1.5-.06-2.94-1.67-4.4-2.61C83.7,1.79,84.38.8,85.14,0h5c.42.27.83.53,1.22.73Z"/><path class="cls-3" d="M126.56.93l4.21,4.6c-1.38,1-2.87,2.8-4.1,2.64C125,8,123.53,6.2,122,5.1Z"/><path class="cls-3" d="M71.77.1,67.23,4.84c-1.9-2-3.92-3.08-4.08-4.41a3.22,3.22,0,0,1,0-.43h8.51Z"/><path class="cls-4" d="M372.8,0V362.76H1.17v-222a4,4,0,0,1-.59-.18c.18-.82.38-1.65.59-2.46V8.79l-.08-.1.08-.06V0Z"/><path class="cls-5" d="M372.8,0V362.76H1.17v-222a4,4,0,0,1-.59-.18c.18-.82.38-1.65.59-2.46V8.79l-.08-.1.08-.06V0Z"/><path class="cls-6" d="M372.8,0V362.76H1.17v-222a4,4,0,0,1-.59-.18c.18-.82.38-1.65.59-2.46V8.79l-.08-.1.08-.06V0Z"/><path class="cls-4" d="M372.8,59.33V310.15A224.92,224.92,0,0,1,323,362.76H51.94A224.92,224.92,0,0,1,1.17,308.67V140.77a4,4,0,0,1-.59-.18c.18-.82.38-1.65.59-2.46V60.81A223.64,223.64,0,0,1,16.6,40.31c1.53-1.81,3.08-3.59,4.67-5.34A223.33,223.33,0,0,1,42.48,14.34c1.86-1.58,3.75-3.14,5.66-4.66Q54.5,4.61,61.22,0H313.74A224.59,224.59,0,0,1,372.8,59.33Z"/><path class="cls-3" d="M372.8,58.48V311a225.29,225.29,0,0,1-49,51.76H51.15a225.26,225.26,0,0,1-50-53.24V140.77a4,4,0,0,1-.59-.18c.18-.82.38-1.65.59-2.46V60A223.08,223.08,0,0,1,16.26,40q2.18-2.58,4.45-5.09a222.91,222.91,0,0,1,21.34-20.8C43.9,12.5,45.77,11,47.67,9.44Q53.85,4.51,60.38,0H314.6A225.21,225.21,0,0,1,372.8,58.48Z"/><path class="cls-7" d="M372.8,134.23v101A192.48,192.48,0,0,1,259.6,362.76H115.38A192.43,192.43,0,0,1,1.17,231.35V140.77a4,4,0,0,1-.59-.18c.18-.82.38-1.65.59-2.46q1-4,2.15-7.92c.29-1,.59-2,.9-3q1.49-4.73,3.19-9.33c.67-1.8,1.36-3.59,2.09-5.37q1.65-4.09,3.5-8.09A191.82,191.82,0,0,1,32.08,71.93q2.74-3.77,5.64-7.38A193.24,193.24,0,0,1,56.56,44.28c1.75-1.64,3.53-3.23,5.34-4.8A191.64,191.64,0,0,1,123.62,3.6c1.36-.48,2.73-1,4.11-1.39C130.1,1.42,132.5.69,134.92,0H240.06A192.43,192.43,0,0,1,372.8,134.23Z"/><circle class="cls-8" cx="187.49" cy="184.74" r="161.54"/><circle class="cls-9" cx="187.49" cy="184.74" r="134.83"/><circle class="cls-10" cx="186.97" cy="183.05" r="107.25"/><path class="cls-2" d="M181.32,177.7c-28.75,0-50.4-32.34-50.62-32.67l-.48-.73.87,0c5.33-.26,10.45-.4,15.22-.4,37.47,0,50.47,8.22,54.77,15.12a13.72,13.72,0,0,1,1.06,12.8l-.07.14-.13.07a41.47,41.47,0,0,1-20.62,5.71Z"/><path class="cls-1" d="M146.31,144.36c68.69,0,55.38,27.2,55.38,27.2a40.84,40.84,0,0,1-20.37,5.64c-28.81,0-50.2-32.44-50.2-32.44,5.46-.27,10.51-.4,15.19-.4m0-1c-4.77,0-9.9.14-15.24.4l-1.75.09,1,1.46a98.1,98.1,0,0,0,14.46,16.41c8.3,7.52,21.37,16.48,36.58,16.48a42,42,0,0,0,20.87-5.77l.26-.16.14-.27a14.27,14.27,0,0,0-1.09-13.29c-6.35-10.18-24.92-15.35-55.19-15.35Z"/><path class="cls-2" d="M198.38,172.16c-41.24,0-49.12-54.75-49.19-55.3l-.12-.87.81.34c44.52,18.8,55.37,33.89,56.63,43.24A13.73,13.73,0,0,1,202,171.94l-.12.1h-.15c-1.11.08-2.22.11-3.3.11Z"/><path class="cls-1" d="M149.69,116.79c79.1,33.4,52,54.76,52,54.76-1.11.08-2.2.11-3.27.11-41.29,0-48.69-54.87-48.69-54.87m-1.23-1.6.23,1.74a97.9,97.9,0,0,0,9,27.75c9.36,18.31,23.44,28,40.72,28,1.1,0,2.22,0,3.34-.11l.31,0,.24-.19A14.27,14.27,0,0,0,207,159.51c-.8-6-5-12.27-12.54-18.69-9.56-8.15-24.49-16.55-44.39-24.95l-1.61-.68Z"/><path class="cls-11" d="M202.12,111.21c28.44,41.36,1.89,60.55,1.89,60.55h-3.79s-26.54-19.19,1.9-60.55"/><text class="cls-12" transform="translate(108.96 227.72)">institut de beau<tspan class="cls-13" x="138.37" y="0">t</tspan><tspan x="145.4" y="0">é </tspan><tspan x="32.64" y="21.6">à domicile</tspan></text><path class="cls-14" d="M111.7,202.91a15.86,15.86,0,0,1-6.68-1.4,14.89,14.89,0,0,1-5.23-4.06,19.25,19.25,0,0,1-3.38-6.37,27,27,0,0,1-1.22-8.4c0-.31,0-.62,0-.94,0-.16,0-.37,0-.59a29.12,29.12,0,0,1,.53-4.4c.14-.62.28-1.22.45-1.8a18.72,18.72,0,0,1,3.05-6.2,12.52,12.52,0,0,1,1.38-1.57,13.86,13.86,0,0,1,3.6-2.55,15,15,0,0,1,6.66-1.45,13.22,13.22,0,0,1,9.64,3.89V151h11.32V202H120.78l0-2.53A12.11,12.11,0,0,1,111.7,202.91ZM114,173.27a7.75,7.75,0,0,0-2.71.43c-3,1.07-4.45,4.23-4.45,9.64a11.91,11.91,0,0,0,2.06,7.23,6.15,6.15,0,0,0,10,.15,10.47,10.47,0,0,0,2.08-6.8,21,21,0,0,0-.58-5.31C119.37,175,117.35,173.27,114,173.27Z"/><path class="cls-1" d="M130.86,152V201h-9.1l-.08-4.37q-3.27,5.32-10,5.32a14.8,14.8,0,0,1-6.26-1.31,13.81,13.81,0,0,1-4.88-3.79,18.18,18.18,0,0,1-3.2-6,25.89,25.89,0,0,1-1.17-8.09c0-.29,0-.58,0-.87s0-.45,0-.67a27.44,27.44,0,0,1,.51-4.19c.13-.59.27-1.17.43-1.73a17.88,17.88,0,0,1,2.88-5.87,12.94,12.94,0,0,1,1.29-1.46,12.71,12.71,0,0,1,3.34-2.36,13.84,13.84,0,0,1,6.22-1.35,12.49,12.49,0,0,1,10.64,5.61V152h9.32m-17,42.17a7.05,7.05,0,0,0,5.71-2.84,11.4,11.4,0,0,0,2.3-7.43,22.07,22.07,0,0,0-.61-5.56q-1.59-6.09-7.33-6.09a8.85,8.85,0,0,0-3.06.49q-5.1,1.83-5.1,10.58a12.8,12.8,0,0,0,2.26,7.83,7,7,0,0,0,5.83,3m19-44.17H119.54v14.87a14.27,14.27,0,0,0-8.64-2.71,15.84,15.84,0,0,0-7.11,1.56,14.94,14.94,0,0,0-3.85,2.72,15.44,15.44,0,0,0-1.48,1.69,19.72,19.72,0,0,0-3.21,6.51c-.16.55-.31,1.16-.46,1.86a29.68,29.68,0,0,0-.56,4.53c0,.23,0,.46,0,.69s0,.64,0,.94a28.08,28.08,0,0,0,1.27,8.71A20.25,20.25,0,0,0,99,198.08a15.69,15.69,0,0,0,5.58,4.33,16.77,16.77,0,0,0,7.1,1.5,13.68,13.68,0,0,0,8.07-2.34l0,1.39h13.06V150Zm-19,42.17a5,5,0,0,1-4.23-2.22,10.92,10.92,0,0,1-1.86-6.63c0-7.34,2.84-8.36,3.78-8.7a6.88,6.88,0,0,1,2.38-.37c2.9,0,4.57,1.42,5.4,4.6a20.27,20.27,0,0,1,.54,5,9.39,9.39,0,0,1-1.85,6.17,5.06,5.06,0,0,1-4.16,2.1Z"/><path class="cls-14" d="M152.63,202.91a21.82,21.82,0,0,1-8.16-1.45,16.95,16.95,0,0,1-10-10.44,23.67,23.67,0,0,1-1.3-8c0-.82,0-1.66.12-2.5a21.93,21.93,0,0,1,1.21-5.56,18,18,0,0,1,2.46-4.62,16.5,16.5,0,0,1,1.45-1.71,17.25,17.25,0,0,1,6.13-4.06,19.52,19.52,0,0,1,4.7-1.2,24.07,24.07,0,0,1,3.35-.22h.2a21.1,21.1,0,0,1,7.75,1.42,17.87,17.87,0,0,1,3.77,2.05,16.91,16.91,0,0,1,2.3,2,17.69,17.69,0,0,1,3.86,6.29,1.68,1.68,0,0,1,.09.27,16.07,16.07,0,0,1,.66,2.27l0,.12a24.9,24.9,0,0,1,.49,3.42c0,.64.07,1.31.07,2.06a23.48,23.48,0,0,1-1.33,8.1,18.24,18.24,0,0,1-3.85,6.28,17,17,0,0,1-6.12,4.06A21.34,21.34,0,0,1,152.63,202.91Zm0-29.71c-3.29,0-7.66,1-7.66,9.85s4.37,9.92,7.66,9.92,7.67-1,7.67-9.92c0-.58,0-1.14-.06-1.67-.28-3.9-1.57-6.34-3.93-7.46l-.17-.07A8.59,8.59,0,0,0,152.63,173.2Z"/><path class="cls-1" d="M152.83,164.18a20,20,0,0,1,7.38,1.35,16.82,16.82,0,0,1,3.55,1.93,15.34,15.34,0,0,1,2.17,1.86,16.65,16.65,0,0,1,3.64,5.93,1.72,1.72,0,0,1,.07.21,17.13,17.13,0,0,1,.64,2.21h0a24.05,24.05,0,0,1,.49,3.39h0c0,.64.07,1.29.07,2a22.26,22.26,0,0,1-1.27,7.75,17,17,0,0,1-3.64,5.94,16,16,0,0,1-5.76,3.82,20.2,20.2,0,0,1-7.54,1.35,20.69,20.69,0,0,1-7.79-1.38,15.94,15.94,0,0,1-9.39-9.84,22.63,22.63,0,0,1-1.24-7.64c0-.82,0-1.63.11-2.41a21,21,0,0,1,1.16-5.31A17,17,0,0,1,137.8,171a15,15,0,0,1,1.36-1.61,16.28,16.28,0,0,1,5.79-3.83,18.46,18.46,0,0,1,4.46-1.14,23.86,23.86,0,0,1,3.22-.21h.2m-.2,29.79q8.67,0,8.67-10.92,0-.92-.06-1.74-.48-6.52-4.68-8.37h0a9.49,9.49,0,0,0-3.92-.74q-8.65,0-8.66,10.85T152.63,194m.21-31.79h-.21a26.34,26.34,0,0,0-3.49.23,20.61,20.61,0,0,0-4.93,1.26,18.42,18.42,0,0,0-6.49,4.3,18.88,18.88,0,0,0-1.53,1.81,19.34,19.34,0,0,0-2.59,4.87,22.85,22.85,0,0,0-1.27,5.81c-.08.87-.12,1.74-.12,2.59a24.68,24.68,0,0,0,1.36,8.31,17.94,17.94,0,0,0,10.52,11,22.6,22.6,0,0,0,8.54,1.53,22.27,22.27,0,0,0,8.28-1.49,18.08,18.08,0,0,0,6.47-4.3,19.14,19.14,0,0,0,4.07-6.63,24.41,24.41,0,0,0,1.39-8.44c0-.74,0-1.41-.07-2.05h0v-.08a27.55,27.55,0,0,0-.49-3.45h0l-.05-.22a17.2,17.2,0,0,0-.69-2.4,2.81,2.81,0,0,0-.1-.31,18.68,18.68,0,0,0-4.07-6.6,16.78,16.78,0,0,0-2.46-2.1,18,18,0,0,0-3.95-2.15,21.93,21.93,0,0,0-8.11-1.5ZM152.63,192c-3.1,0-6.66-1-6.66-8.92s3.56-8.85,6.66-8.85a7.64,7.64,0,0,1,3.1.56l.26.12c1.94,1,3,3.13,3.26,6.58,0,.49.05,1,.05,1.59,0,7.91-3.56,8.92-6.67,8.92Z"/><path class="cls-14" d="M186.43,202.91a13.55,13.55,0,0,1-5.31-1,12.1,12.1,0,0,1-4.17-2.94,13.85,13.85,0,0,1-2.71-4.46,16.33,16.33,0,0,1-1-5.75v-24.6h11.47v23.14c0,3.94,1.56,5.7,5.05,5.7a5.66,5.66,0,0,0,4.72-1.92,8.14,8.14,0,0,0,1.63-5.24V164.13h11.4V202h-11V198.9A13.38,13.38,0,0,1,186.43,202.91Z"/><path class="cls-1" d="M206.53,165.13V201h-9v-5q-3.65,6-11.14,6a12.44,12.44,0,0,1-4.92-.95,10.9,10.9,0,0,1-3.82-2.69,12.86,12.86,0,0,1-2.52-4.15,15.27,15.27,0,0,1-.91-5.39v-23.6h9.47v22.14q0,6.71,6.05,6.7a6.67,6.67,0,0,0,5.5-2.29,9.08,9.08,0,0,0,1.85-5.87V165.13h9.4m2-2h-13.4v22.68a7.08,7.08,0,0,1-1.41,4.62,4.76,4.76,0,0,1-3.94,1.54c-2.43,0-4.05-.8-4.05-4.7V163.13H172.26v25.6a17.22,17.22,0,0,0,1,6.09,14.82,14.82,0,0,0,2.92,4.8,12.7,12.7,0,0,0,4.51,3.18,14.41,14.41,0,0,0,5.7,1.11,14.82,14.82,0,0,0,9.14-2.78V203h13V163.13Z"/><path class="cls-14" d="M226.48,202.91a19,19,0,0,1-7-1.27,14.91,14.91,0,0,1-5.58-3.9,18.19,18.19,0,0,1-3.59-6.4,27.67,27.67,0,0,1-1.26-8.73,26.47,26.47,0,0,1,1.27-8.63,15.94,15.94,0,0,1,3.61-6.09,14.56,14.56,0,0,1,5.66-3.55,22.93,22.93,0,0,1,13.9-.16,15.9,15.9,0,0,1,5.36,3,14.3,14.3,0,0,1,3.64,4.69,16.57,16.57,0,0,1,1.56,6l.08,1.07H232.59l-.11-.87a5.5,5.5,0,0,0-1.87-3.69,5.77,5.77,0,0,0-3.91-1.34,6.7,6.7,0,0,0-2.48.44,4.51,4.51,0,0,0-1.87,1.41,8,8,0,0,0-1.39,2.86,16.76,16.76,0,0,0-.54,4.63c0,3.7.64,6.44,1.91,8.14s2.56,2.44,4.08,2.44a6.44,6.44,0,0,0,4.12-1.32,5.1,5.1,0,0,0,1.88-3.75l.09-.9h11.56l-.12,1.11a16.14,16.14,0,0,1-1.91,6.06,16.39,16.39,0,0,1-3.84,4.65,17.54,17.54,0,0,1-5.29,3A18.57,18.57,0,0,1,226.48,202.91Z"/><path class="cls-1" d="M226.77,164.18a20.35,20.35,0,0,1,6.38.95,15,15,0,0,1,5,2.77,13.31,13.31,0,0,1,3.39,4.37A15.5,15.5,0,0,1,243,178h-9.55a6.49,6.49,0,0,0-2.22-4.33,6.77,6.77,0,0,0-4.55-1.57,7.79,7.79,0,0,0-2.84.51,5.53,5.53,0,0,0-2.29,1.71,8.91,8.91,0,0,0-1.57,3.21,17.72,17.72,0,0,0-.58,4.91c0,3.93.7,6.85,2.11,8.74a6,6,0,0,0,4.88,2.84,7.45,7.45,0,0,0,4.73-1.53A6.06,6.06,0,0,0,233.4,188h9.54a15,15,0,0,1-1.78,5.68,15.32,15.32,0,0,1-3.61,4.37,16.56,16.56,0,0,1-5,2.84,17.59,17.59,0,0,1-6.08,1,17.86,17.86,0,0,1-6.66-1.2,13.75,13.75,0,0,1-5.21-3.64,17,17,0,0,1-3.38-6,26.36,26.36,0,0,1-1.21-8.41,25.36,25.36,0,0,1,1.21-8.3,15,15,0,0,1,3.38-5.72,13.63,13.63,0,0,1,5.28-3.31,20.56,20.56,0,0,1,6.88-1.1m0-2a22.75,22.75,0,0,0-7.54,1.21,15.64,15.64,0,0,0-6,3.8,17,17,0,0,0-3.85,6.47,27.54,27.54,0,0,0-1.32,9,28.24,28.24,0,0,0,1.32,9,19,19,0,0,0,3.78,6.74,15.78,15.78,0,0,0,6,4.17,20,20,0,0,0,7.4,1.34,19.59,19.59,0,0,0,6.77-1.14,18.71,18.71,0,0,0,5.58-3.18,17.49,17.49,0,0,0,4.08-4.93,17.13,17.13,0,0,0,2-6.43l.26-2.23h-13.6l-.18,1.8a4.1,4.1,0,0,1-1.49,3.06,5.48,5.48,0,0,1-3.51,1.11c-.75,0-1.91-.21-3.28-2-1.13-1.52-1.71-4.06-1.71-7.54a16,16,0,0,1,.5-4.35,7.28,7.28,0,0,1,1.19-2.5,3.56,3.56,0,0,1,1.48-1.12,5.78,5.78,0,0,1,2.11-.37,4.8,4.8,0,0,1,3.25,1.09,4.55,4.55,0,0,1,1.54,3.07l.22,1.74h13.46l-.15-2.14a17.63,17.63,0,0,0-1.66-6.41,15.37,15.37,0,0,0-3.9-5,17.08,17.08,0,0,0-5.68-3.14,22.4,22.4,0,0,0-7-1Z"/><path class="cls-14" d="M262.82,202.91c-12.55,0-18.91-6.9-18.91-20.52a23.91,23.91,0,0,1,1.22-7.83,17.22,17.22,0,0,1,3.6-6.1,15.62,15.62,0,0,1,5.79-3.93,21,21,0,0,1,7.72-1.35c5.82,0,10.31,1.92,13.35,5.69s4.48,9.32,4.48,16.65v1h-24.6a8.83,8.83,0,0,0,2,4.83,6.22,6.22,0,0,0,4.9,2.06,6.82,6.82,0,0,0,3.6-.92,3.78,3.78,0,0,0,1.85-2.35l.19-.74h11.88l-.39,1.29a16.79,16.79,0,0,1-6.2,9A17.54,17.54,0,0,1,262.82,202.91Zm5.41-24.36a7.94,7.94,0,0,0-.54-2.07,6.08,6.08,0,0,0-1.4-2.14,5.53,5.53,0,0,0-2-1.24,6.93,6.93,0,0,0-2.36-.41,5.71,5.71,0,0,0-4.21,1.78,7.41,7.41,0,0,0-1.94,4.08Z"/><path class="cls-1" d="M262.24,164.18c5.54,0,9.72,1.78,12.57,5.32s4.26,8.89,4.26,16H254.38a10.25,10.25,0,0,0,2.36,6.49,7.22,7.22,0,0,0,5.65,2.4,7.86,7.86,0,0,0,4.11-1.06,4.76,4.76,0,0,0,2.3-2.95h9.76a15.72,15.72,0,0,1-5.83,8.52,16.46,16.46,0,0,1-9.91,3q-17.91,0-17.91-19.52a22.88,22.88,0,0,1,1.16-7.5,16.26,16.26,0,0,1,3.39-5.75,14.54,14.54,0,0,1,5.43-3.68,19.72,19.72,0,0,1,7.35-1.28m-7.57,15.37h14.64a9.85,9.85,0,0,0-.7-3.46,7.14,7.14,0,0,0-1.63-2.47,6.55,6.55,0,0,0-2.33-1.46,7.83,7.83,0,0,0-2.7-.47,6.75,6.75,0,0,0-4.92,2.07,8.88,8.88,0,0,0-2.36,5.79m7.57-17.37a21.89,21.89,0,0,0-8.09,1.42,16.54,16.54,0,0,0-6.16,4.19,18.28,18.28,0,0,0-3.81,6.44,25.12,25.12,0,0,0-1.27,8.16c0,14.08,6.89,21.52,19.91,21.52a18.45,18.45,0,0,0,11.08-3.37,17.74,17.74,0,0,0,6.58-9.56l.78-2.58h-14l-.4,1.48a2.78,2.78,0,0,1-1.38,1.75,5.88,5.88,0,0,1-3.1.78,5.28,5.28,0,0,1-4.16-1.73,7.14,7.14,0,0,1-1.57-3.16h24.41v-2c0-7.56-1.58-13.37-4.7-17.27s-8-6.07-14.13-6.07Zm-5.18,15.37a5.69,5.69,0,0,1,1.39-2.38,4.79,4.79,0,0,1,3.5-1.48,5.72,5.72,0,0,1,2,.35,4.5,4.5,0,0,1,1.62,1,5.06,5.06,0,0,1,1.17,1.8,4.68,4.68,0,0,1,.25.69Z"/><path class="cls-15" d="M1.17,8.63v.16l-.08-.1Z"/><path class="cls-15" d="M.58,140.59c.18-.82.38-1.65.59-2.46v2.64A4,4,0,0,1,.58,140.59Z"/></g></g></svg>