<svg xmlns="http://www.w3.org/2000/svg" viewBox="0 0 155.68 140.66"><defs><style>.cls-1{fill:#da74ab;}.cls-2{fill:#fff;}</style></defs><g id="Calque_2" data-name="Calque 2"><g id="spatule"><path class="cls-1" d="M61.2,36.15c0,2.16-.06,4.31,0,6.46a30.74,30.74,0,0,0,1,7.39q.69,2.39,1.46,4.76c.58,1.79,1.16,3.58,1.79,5.36a25.31,25.31,0,0,0,3,6c.49.7,1,1.38,1.51,2.07a30.71,30.71,0,0,1,2.69,4.37,18.81,18.81,0,0,1,1.82,5.25,10.18,10.18,0,0,1-1,6.83,10.31,10.31,0,0,1-3,3.37,16.88,16.88,0,0,1-7.09,3,9.28,9.28,0,0,1-8.67-2.89,18.85,18.85,0,0,1-2.69-3.66A35.55,35.55,0,0,1,49,77.23c-.46-1.47-.86-3-1.33-4.43a61.58,61.58,0,0,0-4.37-10.24,61.27,61.27,0,0,0-6.14-9.46c-.83-1-1.73-2-2.6-3s-2.12-2.18-3-3.41a13.84,13.84,0,0,1-2.59-5.61,11.72,11.72,0,0,1-.15-3.5A16.9,16.9,0,0,1,31,31.05a31.34,31.34,0,0,1,3.53-4.95,46.65,46.65,0,0,1,3.73-3.84,20.75,20.75,0,0,1,7.37-4.44A18.07,18.07,0,0,1,49.21,17a10.68,10.68,0,0,1,5,.53,9.17,9.17,0,0,1,6,6,18.36,18.36,0,0,1,.71,3.29,47.82,47.82,0,0,1,.29,6.66v2.64Z"/><path class="cls-1" d="M95.72,35.33c0-2,0-4,0-6a20.3,20.3,0,0,1,1-6,9.2,9.2,0,0,1,5.18-5.5A10.64,10.64,0,0,1,106.7,17a15,15,0,0,1,3.75.64A20.28,20.28,0,0,1,118,21.74,38.48,38.48,0,0,1,125.21,30a18.72,18.72,0,0,1,2.61,6c.12.57.17,1.15.25,1.73,0,.29.06.59.09.88a2.71,2.71,0,0,1,0,.29,13.23,13.23,0,0,1-1.25,5.17,16,16,0,0,1-2.29,3.48c-.64.74-1.31,1.45-2,2.16a55.2,55.2,0,0,0-5.53,6.94,67.24,67.24,0,0,0-5.36,9.6,60.8,60.8,0,0,0-3.39,9.36,39.42,39.42,0,0,1-3.37,8.5,17.64,17.64,0,0,1-3.23,4.35,9.19,9.19,0,0,1-7.62,2.67,17.69,17.69,0,0,1-5.38-1.65,13.11,13.11,0,0,1-3.56-2.42,9.42,9.42,0,0,1-2.89-5.4,12.12,12.12,0,0,1,.25-4.8,21.3,21.3,0,0,1,2.28-5.54,43.79,43.79,0,0,1,3.21-4.74,22.5,22.5,0,0,0,2.66-4.8A66.14,66.14,0,0,0,93.11,55c.45-1.47.91-2.94,1.36-4.41a23.05,23.05,0,0,0,.82-3.86c.17-1.31.23-2.63.32-4C95.77,40.26,95.65,37.8,95.72,35.33Z"/><path class="cls-2" d="M51.41,140.66c-.14-.17-.08-.37-.08-.56,0-1.37,0-2.74,0-4.11,0-.31-.07-.63-.09-.94s0-.44,0-.66a10.07,10.07,0,0,0-.14-2.33.38.38,0,0,1,0-.15,24.32,24.32,0,0,0-.18-2.7c0-.63-.2-1.25-.24-1.88s-.21-1.5-.32-2.24a33.26,33.26,0,0,0-.75-3.43,13.2,13.2,0,0,0-1-2.72,5.5,5.5,0,0,0-.5-.81A3,3,0,0,0,46.36,117c-.93-.23-1.84-.48-2.79-.62-.72-.1-1.43-.25-2.16-.37-.5-.08-1-.13-1.52-.2l-2-.27c-.46-.06-.92,0-1.38-.14-.64-.12-1.31-.12-2-.19l-2.17-.24a2.33,2.33,0,0,0-.37,0,18.36,18.36,0,0,1-3-.41c-.88-.16-1.77-.29-2.65-.48-.6-.13-1.18-.33-1.77-.49a3.39,3.39,0,0,1-1.1-.57c-.41-.31-.79-.65-1.19-1-.82-.66-1.55-1.42-2.31-2.15-.51-.49-1.06-.94-1.55-1.45-.82-.87-1.61-1.77-2.41-2.66,0,0,0,0-.05,0-1-1-1.83-2-2.7-3A40.12,40.12,0,0,1,10,98.29c-.56-.89-1.1-1.8-1.66-2.68-.83-1.33-1.67-2.64-2.52-4-1.16-1.81-2.35-3.6-3.48-5.43a18.54,18.54,0,0,1-2-4.08A6.19,6.19,0,0,1,0,79.84,1.23,1.23,0,0,1,1,78.6a2.49,2.49,0,0,1,2,.37A14.33,14.33,0,0,1,5,80.41c.36.33.75.62,1.17,1,.11-.12.22-.23.32-.35A1.82,1.82,0,0,1,8,80.34a4.27,4.27,0,0,1,2.68,1,7.06,7.06,0,0,1,.88.76,10.18,10.18,0,0,1,1.06,1.22c.82,1.18,1.61,2.39,2.41,3.58.67,1,1.35,2,2,3a2.18,2.18,0,0,0,.25.28l4.8,4.95a32.31,32.31,0,0,0,3.68,3.24,9.2,9.2,0,0,0,4,1.81c1,.16,1.92.32,2.89.44.72.09,1.46.1,2.19.17a6.11,6.11,0,0,0,1.6.12c0-.17-.12-.19-.21-.24-1.06-.55-2.14-1.08-3.19-1.67A36.11,36.11,0,0,1,28,95.64c-1.4-1.14-2.83-2.24-4.23-3.38-.55-.45-1.06-.94-1.59-1.41l-.45-.37a5.64,5.64,0,0,1-1.46-1.73,1.14,1.14,0,0,1,.08-1.25,2.26,2.26,0,0,1,1.46-1,4.24,4.24,0,0,1,1.88.08,23.31,23.31,0,0,1,3.17.89c.59.23,1.19.46,1.76.73l4.89,2.37c1.18.59,2.36,1.17,3.59,1.66a21.67,21.67,0,0,0,2.94.9c1.81.42,3.59.92,5.36,1.49,1.21.39,2.43.75,3.62,1.17a45.23,45.23,0,0,1,6,2.46,17.86,17.86,0,0,1,3,2,18.56,18.56,0,0,1,1.47,1.33A17.68,17.68,0,0,1,62,104.81a18.86,18.86,0,0,1,2.28,5.69,17.39,17.39,0,0,1,.42,2.88c0,.53.14,1.06.13,1.6a19.08,19.08,0,0,1-.64,5A28.11,28.11,0,0,1,62.76,124c-.39.9-.77,1.79-1.2,2.67-.65,1.32-1.41,2.57-2.16,3.83a57.06,57.06,0,0,1-3.45,5c-.74,1-1.55,1.89-2.33,2.82-.57.67-1.15,1.33-1.73,2C51.77,140.49,51.66,140.68,51.41,140.66Z"/><path class="cls-2" d="M119.11,100.91a.82.82,0,0,0,.22,0c.84-.17,1.7-.08,2.54-.25.48-.1,1-.09,1.46-.15,1-.12,2-.28,3-.46a7.55,7.55,0,0,0,2.56-1,21.29,21.29,0,0,0,3.73-3c.56-.57,1.22-1.06,1.75-1.66,1.11-1.24,2.33-2.38,3.46-3.6a16.49,16.49,0,0,0,1.72-2.18c.84-1.3,1.67-2.59,2.52-3.87a16.69,16.69,0,0,1,2.52-3,6.24,6.24,0,0,1,1.78-1.15,3.21,3.21,0,0,1,1.73-.19,1.37,1.37,0,0,1,1,.62,3.77,3.77,0,0,0,.3.37l1-.83A25.13,25.13,0,0,1,152.56,79a2.8,2.8,0,0,1,1.37-.46,1.55,1.55,0,0,1,1.73,1.84,13.08,13.08,0,0,1-1.81,4.91c-1,1.72-2.08,3.36-3.16,5q-1.89,2.92-3.76,5.86c-.67,1-1.3,2.12-2,3.17a21.08,21.08,0,0,1-1.79,2.32c-.6.7-1.18,1.43-1.77,2.14a3.22,3.22,0,0,1-.24.28c-.75.81-1.53,1.59-2.24,2.42a44.82,44.82,0,0,1-3.54,3.62,22.67,22.67,0,0,1-3.45,3,4.33,4.33,0,0,1-1.25.59c-.92.23-1.85.45-2.78.65s-1.58.29-2.37.42c-.53.08-1.07.1-1.6.18-.85.12-1.7.11-2.55.25-.59.11-1.21.11-1.82.19-.79.1-1.6.12-2.39.26s-1.69.2-2.54.33c-1,.15-2,.33-3,.51-.6.1-1.2.22-1.79.38a7,7,0,0,0-1.24.44,3.14,3.14,0,0,0-1.28,1.37,15.55,15.55,0,0,0-1.57,4.32c-.21,1-.39,2-.56,2.94-.09.53-.12,1.07-.19,1.6l-.24,1.88c0,.1,0,.2,0,.29a7.3,7.3,0,0,1-.14,1.75c0,1.47-.24,2.92-.18,4.39a7.47,7.47,0,0,1-.09.94q0,.33,0,.66c0,1,0,2,0,2.94a2.11,2.11,0,0,1,0,.26.21.21,0,0,1-.28-.08L102.51,139c-.38-.42-.74-.86-1.11-1.27a35,35,0,0,1-2.4-3.05c-.76-1-1.48-2.07-2.17-3.13s-1.21-2-1.77-3-1-1.8-1.43-2.72a32.5,32.5,0,0,1-2.37-6.46,13,13,0,0,1-.4-3.11c0-.66,0-1.32,0-2a18.21,18.21,0,0,1,1.35-6.63A17.8,17.8,0,0,1,94,104.2a19.05,19.05,0,0,1,1.82-2.29,19.21,19.21,0,0,1,7.12-4.77c1.56-.59,3.11-1.18,4.69-1.7,2.64-.86,5.3-1.71,8-2.33a22.91,22.91,0,0,0,5-1.8L126,88.67a27.3,27.3,0,0,1,3.58-1.49,21.67,21.67,0,0,1,3.28-.76,2.57,2.57,0,0,1,1.88.46,2,2,0,0,1,.78,1.28.56.56,0,0,1-.07.35,3.91,3.91,0,0,1-.86,1.27,24.28,24.28,0,0,1-2.56,2.3c-1.25,1-2.52,1.93-3.71,3a28.2,28.2,0,0,1-3.72,2.73,45.05,45.05,0,0,1-4.61,2.56l-.9.46Z"/><path class="cls-1" d="M48.39,0a4.26,4.26,0,0,1,3,1.2A7,7,0,0,1,53.1,3.64a9.28,9.28,0,0,1,.83,4,7,7,0,0,1-.9,3.51,4.31,4.31,0,0,1-1.16,1.39,3.57,3.57,0,0,1-4.12.27,5.74,5.74,0,0,1-2.15-2.06A8.48,8.48,0,0,1,44.23,6.1a8.69,8.69,0,0,1,.21-2.33A5.59,5.59,0,0,1,46.11.9,3.23,3.23,0,0,1,48.39,0Z"/><path class="cls-1" d="M112.61,5.88a8.52,8.52,0,0,1-1.07,4.36A6.23,6.23,0,0,1,109,12.88a3.84,3.84,0,0,1-1.83.45,3.62,3.62,0,0,1-2.45-1,5.23,5.23,0,0,1-1.45-2.51A8.84,8.84,0,0,1,104.78,2a5.06,5.06,0,0,1,2-1.6,3.67,3.67,0,0,1,4.63,1.23A6.56,6.56,0,0,1,112.61,5C112.63,5.29,112.61,5.59,112.61,5.88Z"/><path class="cls-1" d="M120.42,10.36a6.91,6.91,0,0,1-2,4.84,3.32,3.32,0,0,1-2,.91,2.56,2.56,0,0,1-1.89-.64,4.38,4.38,0,0,1-1.39-2.53,6.74,6.74,0,0,1,1-5.11,4.22,4.22,0,0,1,1.79-1.58,2.77,2.77,0,0,1,3.17.58,4.38,4.38,0,0,1,1.12,2.11C120.31,9.44,120.35,10,120.42,10.36Z"/><path class="cls-1" d="M36.48,10.23a5.08,5.08,0,0,1,.67-2.58,3.39,3.39,0,0,1,.82-1,2.81,2.81,0,0,1,3.35-.17A4.67,4.67,0,0,1,43,8.33a7.1,7.1,0,0,1,.81,2.72,5.89,5.89,0,0,1-.33,2.73,3.91,3.91,0,0,1-.87,1.43,2.73,2.73,0,0,1-3.47.5A4.64,4.64,0,0,1,37.43,14,7,7,0,0,1,36.48,10.23Z"/><path class="cls-1" d="M34.09,21.19a2.77,2.77,0,0,1-2.17-1.06A5.61,5.61,0,0,1,30.56,17a5,5,0,0,1,.55-3,3.14,3.14,0,0,1,.33-.48A2.38,2.38,0,0,1,35,13.16a4.89,4.89,0,0,1,1.79,3.1,5.38,5.38,0,0,1,0,2.19A4.55,4.55,0,0,1,36.15,20,2.33,2.33,0,0,1,34.09,21.19Z"/><path class="cls-1" d="M126.3,16.3a5.71,5.71,0,0,1-.86,3.15,4.25,4.25,0,0,1-1.32,1.35,2.41,2.41,0,0,1-3.13-.41,4,4,0,0,1-1-2.33,5.77,5.77,0,0,1,1.21-4.26,3.59,3.59,0,0,1,.92-.82,2.43,2.43,0,0,1,3.54.88A4.26,4.26,0,0,1,126.3,16.3Z"/><path class="cls-1" d="M31.3,23.39a3.74,3.74,0,0,1-.56,2,2,2,0,0,1-1.95,1.05,2.19,2.19,0,0,1-1.18-.53,4,4,0,0,1-1.23-1.87,4.46,4.46,0,0,1,0-2.93,2.71,2.71,0,0,1,.57-1,2,2,0,0,1,2.52-.41A3.42,3.42,0,0,1,30.68,21,5.58,5.58,0,0,1,31.3,23.39Z"/><path class="cls-1" d="M130.69,22.54a4.31,4.31,0,0,1-1.33,3.28,2,2,0,0,1-3.36-.59A4.56,4.56,0,0,1,127,20a2.35,2.35,0,0,1,1.17-.55,1.89,1.89,0,0,1,1.87.76,3.37,3.37,0,0,1,.67,1.75A5.81,5.81,0,0,1,130.69,22.54Z"/><path class="cls-1" d="M28.09,30.23a2.89,2.89,0,0,1-.35,1.49,1.73,1.73,0,0,1-2.86.54A3.32,3.32,0,0,1,24,30.78a3.61,3.61,0,0,1,0-2.57,3.28,3.28,0,0,1,.34-.64,1.7,1.7,0,0,1,2.46-.3,3.27,3.27,0,0,1,.84,1A4,4,0,0,1,28.09,30.23Z"/><path class="cls-1" d="M133.07,29.51a3.51,3.51,0,0,1-.92,2.54,1.92,1.92,0,0,1-1.46.74,1.55,1.55,0,0,1-1.07-.4,2.23,2.23,0,0,1-.76-1.32,3.94,3.94,0,0,1,.76-3.39,2,2,0,0,1,1.44-.79,1.65,1.65,0,0,1,1.62.91A3,3,0,0,1,133.07,29.51Z"/></g></g></svg>