<svg xmlns="http://www.w3.org/2000/svg" viewBox="0 0 122.39 152.3"><defs><style>.cls-1{fill:#fff;}.cls-2{fill:#da74ab;}.cls-3{fill:#e14748;}</style></defs><g id="Calque_2" data-name="Calque 2"><g id="spatule"><path class="cls-1" d="M85.06,98c.34-2,.63-3.9,1-5.84a19.57,19.57,0,0,1,2-5.63,9.05,9.05,0,0,1,6-4.46,10.29,10.29,0,0,1,4.81,0,15,15,0,0,1,3.53,1.25A20,20,0,0,1,109,88.6a37.34,37.34,0,0,1,5.62,9.24,17.84,17.84,0,0,1,1.51,6.29,16.58,16.58,0,0,1,0,1.73c0,.29,0,.58-.06.87a1.35,1.35,0,0,1,0,.28,13.12,13.12,0,0,1-2.08,4.8,15.74,15.74,0,0,1-2.82,3c-.75.61-1.52,1.18-2.3,1.76a53.63,53.63,0,0,0-6.54,5.79,64.92,64.92,0,0,0-6.84,8.41,59.69,59.69,0,0,0-4.88,8.51A38.56,38.56,0,0,1,85.76,147a17.29,17.29,0,0,1-3.87,3.67,9.08,9.08,0,0,1-7.85,1.3,17.31,17.31,0,0,1-4.94-2.51,13,13,0,0,1-3-3,9.33,9.33,0,0,1-1.89-5.74,12,12,0,0,1,1.06-4.61,20.65,20.65,0,0,1,3.16-5,41.65,41.65,0,0,1,3.92-4.05,22.25,22.25,0,0,0,3.4-4.21,70.5,70.5,0,0,0,3.49-6.24c.68-1.35,1.38-2.7,2.07-4.05A23.17,23.17,0,0,0,82.71,109c.39-1.24.67-2.51,1-3.77C84.27,102.81,84.57,100.4,85.06,98Z"/><path class="cls-2" d="M106.45,72.3a8.3,8.3,0,0,1-1.78,4,6,6,0,0,1-2.94,2.13,3.68,3.68,0,0,1-1.86.13,3.51,3.51,0,0,1-2.19-1.42,5.07,5.07,0,0,1-1-2.68,8.69,8.69,0,0,1,2.82-7.34,5,5,0,0,1,2.2-1.21,3.61,3.61,0,0,1,4.28,2,6.44,6.44,0,0,1,.6,3.51A8.6,8.6,0,0,1,106.45,72.3Z"/><path class="cls-2" d="M113.27,78a6.72,6.72,0,0,1-2.78,4.35,3.26,3.26,0,0,1-2.13.54,2.51,2.51,0,0,1-1.73-.94,4.32,4.32,0,0,1-.92-2.69,6.63,6.63,0,0,1,1.87-4.78,4.13,4.13,0,0,1,2-1.23,2.71,2.71,0,0,1,3,1.1,4.17,4.17,0,0,1,.73,2.23C113.32,77.06,113.28,77.56,113.27,78Z"/><path class="cls-2" d="M118,84.73a5.62,5.62,0,0,1-1.36,2.92,4.25,4.25,0,0,1-1.52,1.09,2.39,2.39,0,0,1-3-.93,4,4,0,0,1-.55-2.43,5.69,5.69,0,0,1,1.89-3.93,3.4,3.4,0,0,1,1-.64,2.38,2.38,0,0,1,3.28,1.45A4.07,4.07,0,0,1,118,84.73Z"/><path class="cls-2" d="M121.18,91.54a4.25,4.25,0,0,1-1.86,3,2,2,0,0,1-3.16-1.15A4.48,4.48,0,0,1,118,88.44a2.35,2.35,0,0,1,1.23-.34,1.85,1.85,0,0,1,1.68,1.06,3.24,3.24,0,0,1,.35,1.81A5.62,5.62,0,0,1,121.18,91.54Z"/><path class="cls-2" d="M122.3,98.7A3.42,3.42,0,0,1,121,101a1.87,1.87,0,0,1-1.54.47,1.52,1.52,0,0,1-1-.58,2.26,2.26,0,0,1-.52-1.4,3.92,3.92,0,0,1,1.32-3.16,1.94,1.94,0,0,1,1.53-.52A1.63,1.63,0,0,1,122.22,97,3,3,0,0,1,122.3,98.7Z"/><path class="cls-1" d="M70.17,10.91c.41,1,1.21,2,1.16,2.93C71,20.13,70.5,26.41,70.07,32.7c-.32,4.59-.61,9.18-.93,13.76-.2,3-.47,5.92-.6,8.88,0,.58.45,1.19.7,1.78.42-.48,1.11-.91,1.22-1.46,1.26-6.12,2.45-12.27,3.62-18.41.5-2.6.86-5.23,1.43-7.82.15-.72.84-1.32,1.28-2-.17,1.23-.39,2.46-.5,3.7-.12,1.46-.1,3,1.86,3.14s2.41-1.17,2.72-2.6c.27-1.21.37-2.46.54-3.69,1.75,2.23.46,4.62.17,6.86-.85,6.65-2,13.27-3,19.89-.84,5.39-1.77,10.76-2.56,16.16-.71,4.89-1.29,9.8-1.93,14.71s-1.48,9.64-1.82,14.49a16.46,16.46,0,0,0,1.2,6.57c.57,2.28.47,5.84-2.88,11.26-1.43,2.5-5.13,8.14-12,10.51-4.79,1.65-11,1.67-12.1-.48a17.51,17.51,0,0,0-1.7-3.63c-.38-.57-.74-.92-.81-1.08-1.47-3.47-2.83-7-4.54-10.33a61.82,61.82,0,0,0-4.55-7c-4.63-6.66-9.4-13.23-13.95-20C16,78.67,11.19,71.21,6.36,63.8a1.88,1.88,0,0,1-.12-.65,3.3,3.3,0,0,0,3.58-2.9c.26-1.52,0-3-1.88-3.52l0,0L7.06,55.4h0L6,54l-.56-.52L4,52.11c4.55-1,7.62,1.4,10.27,4.6,4.5,5.4,8.91,10.87,13.41,16.26a1.72,1.72,0,0,0,3.08-.68,15.46,15.46,0,0,0,.6-3.7c.37-8.79-.66-17.49-1.74-26.2-.78-6.39-1.2-12.82-1.86-19.22-.34-3.3-1-6.57-1.16-9.87-.05-1.38,1-2.79,1.5-4.19.17,2,.38,4,.49,6a2.53,2.53,0,0,0,2.79,2.53,2.48,2.48,0,0,0,2.76-2.76c-.1-2.06-.26-4.11-.39-6.17,2.37,1.3,2.15,3.81,2.47,5.88.81,5.25,1.23,10.56,1.92,15.83.66,5,1.47,10.06,2.17,15.1.36,2.55.52,5.15,1,7.67.14.67,1.25,1.14,1.91,1.71.53-.7,1.49-1.36,1.54-2.09.28-4.53.4-9.07.51-13.61.18-7.75.28-15.51.47-23.27.08-3.34.15-6.7.5-10,.13-1.2,1-2.33,1.61-3.49,0,1.72,0,3.44.07,5.15a3.48,3.48,0,0,0,3.21,3.4c1.66,0,2.7-1.27,2.76-3.4,0-1.56,0-3.13,0-4.7.53,1.4,1.51,2.8,1.51,4.19,0,15.24-.19,30.47-.21,45.71,0,.73,1,1.47,1.49,2.2.53-.73,1.43-1.41,1.52-2.19.85-6.67,1.58-13.35,2.27-20,.53-5.08.79-10.18,1.45-15.24.3-2.29-.36-5.05,2.19-6.65,0,1.78,0,3.57-.08,5.35a2.79,2.79,0,0,0,5.56.26C69.79,14.58,70,12.75,70.17,10.91Z"/><path class="cls-2" d="M54,2.82c0,1.57,0,3.14,0,4.7-.06,2.13-1.1,3.39-2.76,3.4A3.48,3.48,0,0,1,48,7.52c-.09-1.71-.05-3.43-.07-5.15L49.22.82c-1.1,3.26-1.09,5.87.32,7.49.21-2.75.41-5.21.6-7.72l-.93.24C51.39-.78,53.22,0,54,2.82Z"/><path class="cls-2" d="M70.17,10.91c-.17,1.84-.38,3.67-.49,5.51a2.79,2.79,0,0,1-5.56-.26c0-1.78.06-3.57.08-5.35a4,4,0,0,1,.57-.87,4.51,4.51,0,0,1,.63-.58,13,13,0,0,0-.58,6.81l.63,0c.39-2.44.77-4.89,1.17-7.41-1,.54-1.2.61-1.23.57s.41-.52,1-.79a2.76,2.76,0,0,1,.87-.27,3.27,3.27,0,0,1,.41,0,2.78,2.78,0,0,1,1.72.89A3.19,3.19,0,0,1,70.17,10.91Z"/><path class="cls-2" d="M33.75,8.66c.13,2.06.29,4.11.39,6.17a2.48,2.48,0,0,1-2.76,2.76,2.53,2.53,0,0,1-2.79-2.53c-.11-2-.32-4-.49-6l.5-.94.6,6.7.69,0c.12-2.49.23-5,.31-7.45,0,0-.41-.12-.62-.18C31.47,6.27,32.81,6.91,33.75,8.66Z"/><path class="cls-2" d="M7.94,56.73c1.93.47,2.14,2,1.88,3.52a3.3,3.3,0,0,1-3.58,2.9L0,54.57l2.15-1.91,0,.05c1.59,1.81,3.16,3.64,4.8,5.42.18.19.72.06,1.09.08C8,57.72,8,57.22,7.94,56.73Z"/><path class="cls-2" d="M81.41,28c-.17,1.23-.27,2.48-.54,3.69-.31,1.43-.89,2.77-2.72,2.6s-2-1.68-1.86-3.14c.11-1.24.33-2.47.5-3.7l.9-.77-.85,5.21.7.17c.2-.67.38-1.34.6-2,.44-1.28.9-2.55,1.34-3.83a2.89,2.89,0,0,1,1.16.65A3,3,0,0,1,81.41,28Z"/><path class="cls-1" d="M49.21.83l.93-.24c-.19,2.51-.39,5-.6,7.72-1.41-1.62-1.42-4.23-.32-7.49Z"/><path class="cls-1" d="M29.58,7.19c.21.06.62.13.62.18-.08,2.48-.19,5-.31,7.45l-.69,0-.6-6.7Z"/><path class="cls-1" d="M65.39,9.38l1.23-.57c-.4,2.52-.78,5-1.17,7.41l-.63,0a13,13,0,0,1,.58-6.81Z"/><path class="cls-1" d="M79.48,26.23c-.44,1.28-.9,2.55-1.34,3.83-.22.66-.4,1.33-.6,2l-.7-.17c.28-1.74.57-3.47.85-5.21a1.59,1.59,0,0,1,.72-.49A1.64,1.64,0,0,1,79.48,26.23Z"/><path class="cls-2" d="M4,52.11,5.39,53.5l-3.21-.79,0-.05Z"/><path class="cls-1" d="M2.18,52.71l3.21.79L6,54l1.13,1.39h0L8,56.76l0,0c0,.49.08,1,.13,1.48-.37,0-.91.11-1.09-.08C5.34,56.35,3.77,54.52,2.18,52.71Z"/><path class="cls-3" d="M7.08,55.41,6,54Z"/><path class="cls-3" d="M8,56.76,7.06,55.4Z"/></g></g></svg>