<svg xmlns="http://www.w3.org/2000/svg" viewBox="0 0 112.52 126.16"><defs><style>.cls-1{fill:#fff;}.cls-2{fill:#da74ab;}</style></defs><g id="Calque_2" data-name="Calque 2"><g id="spatule"><path class="cls-1" d="M40.93,126.16,13.06,112.58c-2.78-1.36-5.54-2.77-8.3-4.16A7.88,7.88,0,0,1,0,100.66c.06-3.44,1.88-5.45,4.79-6.78,3.57-1.63,7.32-3,10.67-4.95,6-3.56,11.66-7.71,17.66-11.27C47.71,69,65.75,70.87,79,81.89c3.06,2.54,6.79,4.29,10.32,6.21,3.7,2,7.48,3.9,11.31,5.65,3.27,1.5,5,3.67,5.12,7.46.15,4-2.21,5.94-5.17,7.42-11.91,5.9-23.87,11.69-35.81,17.53H61.38c-3.13-1.69-6.08-3.53-6-7.73s2.78-6.18,6.2-7.71c2.44-1.08,4.76-2.42,7.17-3.57,4-1.9,8-3.75,12-5.62l-.19-1.25L69.38,98.63c-.29-16.24-5.09-23.21-16.89-22.55a19.47,19.47,0,0,0-11.24,4.76C36,85.73,34.38,92.33,37.64,99.68c-6.44-1.57-8.53-1.14-11.72,2,6.89,3.42,13.81,6.82,20.7,10.3a6.83,6.83,0,0,1,2.1,1.88c3.48,4.37,1.77,9.13-4.38,12.32Z"/><path class="cls-1" d="M78.73,50.18c-3.09,6.1-8,9.94-14.83,10.78-4.31.52-8.65,1.1-13,1.19a6.19,6.19,0,0,1-6.58-6.57c.08-4.23,2.56-6.73,6.8-7,3.36-.22,6.73-.4,10-.94a6.16,6.16,0,0,0,3.73-2.11c3.51-4.87,7.52-9.59,10-15,4.48-9.89,11.33-8.87,18.76-3.8,10.15,6.93,13.52,17.75,16.43,28.84,3,11.48,3.59,22.93-.14,34.38-.3.92-.76,1.79-1.28,3-4.57-2.35-9.35-3.5-12-9-1.92-4-5.93-7.08-9.15-10.43-1.66-1.73-2.55-3.11-1.76-5.87C87.55,61.44,84.44,54.16,78.73,50.18Z"/><path class="cls-1" d="M65.2,0c8.34,0,12.85,5,13.33,13.41.46,8.26-7.12,13.82-13.19,13.87-7.43,0-14.23-6.51-14.18-13.71C51.22,5.75,57.17,0,65.2,0Z"/><path class="cls-2" d="M91.28,86.18c-3.46-1.89-7.37-3.26-10.29-5.77A43.13,43.13,0,0,0,24,81.07c-2.63,2.36-6.42,3.43-10,4.47C23.88,70.48,38.31,64.07,55.56,65c15,.79,28.05,6.59,36.44,19.88Z"/><path class="cls-1" d="M53,78.42c8.4,0,14.24,5.91,14.35,14.18a14.71,14.71,0,0,1-14.66,14.71c-7.42.07-14.49-7.33-14.29-14.83S44,78.27,53,78.42Z"/></g></g></svg>