<svg xmlns="http://www.w3.org/2000/svg" viewBox="0 0 128.36 94.75"><defs><style>.cls-1{fill:#fff;}.cls-2{fill:#db81b3;}.cls-3{fill:#da74ab;}</style></defs><g id="Calque_2" data-name="Calque 2"><g id="spatule"><rect id="baton" class="cls-1" x="-10.17" y="37.66" width="143.18" height="23.75" rx="11.88" transform="translate(-17.19 42.72) rotate(-33.93)"/><path id="relief-cire" class="cls-2" d="M122.19,50a54,54,0,0,0-.36,7.93c.44,13.58,6,19.12,2.68,24.45-1.24,2-3.6,3.77-6,3.72a7.45,7.45,0,0,0,.69-.93c3.34-5.33-2.25-10.87-2.69-24.46a55.32,55.32,0,0,1,.36-7.92c.78-7.44,2.33-10.24,5.19-23.32a40.81,40.81,0,0,0,.91-10.61,34.15,34.15,0,0,0-1.71-8.5l-1.7-2.53a11.36,11.36,0,0,0-12.18-4.67c.6-.39,1.2-.8,1.79-1.2A11.33,11.33,0,0,1,124.87,5l1.7,2.53a34.11,34.11,0,0,1,1.72,8.5,41.33,41.33,0,0,1-.91,10.61C124.52,39.73,123,42.53,122.19,50Z"/><path id="cire" class="cls-3" d="M116.84,52.76a55.32,55.32,0,0,0-.36,7.92c.44,13.59,6,19.13,2.69,24.46a7.45,7.45,0,0,1-.69.93h0c-3-.07-5.07-2.87-5.5-3.45-5.71-7.66,5.09-18,.7-29.4C111.3,47.07,104.86,41.93,99.1,42c-2.91.06-5.47,1.45-9.44,3.73l-.71.41A52.12,52.12,0,0,0,80.82,52,2.48,2.48,0,0,1,79,52l-.06,0q-4.68-2.14,1.89-31L107.35,3.13A11.36,11.36,0,0,1,119.53,7.8l1.7,2.53a34.15,34.15,0,0,1,1.71,8.5A40.81,40.81,0,0,1,122,29.44C119.17,42.52,117.62,45.32,116.84,52.76Z"/></g></g></svg>