<svg xmlns="http://www.w3.org/2000/svg" viewBox="0 0 128.36 94.75"><g data-name="Calque 2"><rect x="-10.17" y="37.66" width="143.18" height="23.75" rx="11.88" transform="rotate(-33.93 61.423 49.535)" style="fill:#fff"/><path d="M122.19 50a54 54 0 0 0-.36 7.93c.44 13.58 6 19.12 2.68 24.45-1.24 2-3.6 3.77-6 3.72a7.45 7.45 0 0 0 .69-.93c3.34-5.33-2.25-10.87-2.69-24.46a55.32 55.32 0 0 1 .36-7.92c.78-7.44 2.33-10.24 5.19-23.32a40.81 40.81 0 0 0 .91-10.61 34.15 34.15 0 0 0-1.71-8.5l-1.7-2.53a11.36 11.36 0 0 0-12.18-4.67c.6-.39 1.2-.8 1.79-1.2A11.33 11.33 0 0 1 124.87 5l1.7 2.53a34.11 34.11 0 0 1 1.72 8.5 41.33 41.33 0 0 1-.91 10.61C124.52 39.73 123 42.53 122.19 50z" style="fill:#db81b3"/><path d="M116.84 52.76a55.32 55.32 0 0 0-.36 7.92c.44 13.59 6 19.13 2.69 24.46a7.45 7.45 0 0 1-.69.93c-3-.07-5.07-2.87-5.5-3.45-5.71-7.66 5.09-18 .7-29.4-2.38-6.15-8.82-11.29-14.58-11.22-2.91.06-5.47 1.45-9.44 3.73l-.71.41A52.12 52.12 0 0 0 80.82 52 2.48 2.48 0 0 1 79 52h-.06q-4.68-2.14 1.89-31l26.52-17.87a11.36 11.36 0 0 1 12.18 4.67l1.7 2.53a34.15 34.15 0 0 1 1.71 8.5 40.81 40.81 0 0 1-.94 10.61c-2.83 13.08-4.38 15.88-5.16 23.32z" style="fill:#da74ab"/></g></svg>