<svg xmlns="http://www.w3.org/2000/svg" viewBox="0 0 119.22 143.95"><defs><style>.cls-1{fill:#fff;}.cls-2{fill:#da74ab;}.cls-3{fill:#2b2523;}</style></defs><g id="Calque_2" data-name="Calque 2"><g id="spatule"><path class="cls-1" d="M80.61,2.34C88.48,8.13,96.13,14,100.26,23.18a38.62,38.62,0,0,1,3.62,14.6c1.65-1.09,1.9-2.59,2-4.65,1.13,2.55,1.15,4.8,0,6.7-.82,1.37-.44,1.8.58,2.46,3.25,2.1,6.48,4.23,9.72,6.34.14.09.38.09.48.21,1,1.17,3,2,2.44,3.72-.36,1-2.1,1.66-3.3,2.32-.92.51-1.36.78-1.12,2.14a13.85,13.85,0,0,0,2.6,6.16c1.44,1.94-.57,2.56-1.83,3.48a13.52,13.52,0,0,0,1.12,1.22c1.29,1.11,1.39,2.11.19,3.47a3.61,3.61,0,0,0-.56,2.76c.76,3.62,1.41,7.23.49,10.91a3.33,3.33,0,0,1-3.38,2.69,104.86,104.86,0,0,1-10.77.31,26.19,26.19,0,0,1-13.67-4.68c-.37-.26-.77-.48-1.24-.77.8,2,4.34,4.33,9.87,6.55-1.65.86-3.3,1.69-4.92,2.57C88.11,94.14,86,98.34,84.65,103c-1.32,4.46-1.25,9.1-1.13,13.71a14.32,14.32,0,0,0,.41,2.23l-.57.18a55.23,55.23,0,0,1-1.77-5.8c-.82-4.28-1.6-8.58-2.11-12.9-1.41-11.89,1.17-23.24,4.7-34.5C85.52,61.58,86,57,86.8,52.56c.32-1.83.36-3.71.52-5.38-2.11,7.07-4.24,14.27-6.39,21.46-1.65,5.5-3.62,10.93-4.9,16.52A119.54,119.54,0,0,0,74,99.93a56.83,56.83,0,0,0,0,8.85,52.42,52.42,0,0,0,7.1,23.91A58.61,58.61,0,0,0,90.24,144c-1.17-.43-2.37-.82-3.52-1.31a49.23,49.23,0,0,1-12.36-7.42A40,40,0,0,1,64.42,123a34.51,34.51,0,0,1-4.11-13.17,51.72,51.72,0,0,1-.33-9.3c.41-4.57,1.33-9.09,2-13.64a1,1,0,0,0-.27-1c-.86,2.86-1.81,5.69-2.55,8.58A63.63,63.63,0,0,0,57,114c.61,10.81,3.55,20.78,10.92,29.07a4.12,4.12,0,0,1,.25.84c-2.23-1.36-4.23-2.39-6-3.71a46.25,46.25,0,0,1-15-18,39.88,39.88,0,0,1-3.48-14.15c-.7-11.91,3-22.68,8.68-32.86C57,66.81,62.12,58.57,67,50.21c3.38-5.8,6.93-11.51,10-17.47A42.17,42.17,0,0,0,81.34,18.5,47.32,47.32,0,0,0,80.57,3,2.17,2.17,0,0,1,80.61,2.34Z"/><path class="cls-2" d="M10.28,122.65C8.14,119,5.54,115.58,4,111.71A57.15,57.15,0,0,1,.31,97.83,37.87,37.87,0,0,1,1.46,82.52,47.73,47.73,0,0,1,14,61.91,124.49,124.49,0,0,1,31.59,47.55c6.91-4.75,13.93-9.37,20.92-14A73,73,0,0,0,67.7,20.7,42.08,42.08,0,0,0,76.5,2.6a7.12,7.12,0,0,1,1-2.6,42.43,42.43,0,0,1,1.21,5.69c.64,8.28-1.28,16-4.74,23.54A96.1,96.1,0,0,1,60.21,50.69c-3.77,4.51-7.79,8.8-11.68,13.21A110.55,110.55,0,0,0,34.55,83a67.44,67.44,0,0,0-7.35,19.74,49.22,49.22,0,0,0-.55,15.38,43.84,43.84,0,0,0,4,14.35,1,1,0,0,1-.12.88C12.5,114,10,93.37,25.3,71.14l-.38-.23a31.07,31.07,0,0,0-3.19,3.62,144.58,144.58,0,0,0-8,13.25A50.87,50.87,0,0,0,9,104.68a47.39,47.39,0,0,0,1.57,17.67ZM26,70l-.35-.14-.37.92.37.15Zm.95-1.28.25.23a1.62,1.62,0,0,0,.24-.42c0-.06-.13-.16-.2-.25Z"/><path class="cls-1" d="M74.32.37c-23.63,7.86-42,21.29-49.85,46.21.28-1.95.48-3.92.87-5.84s1-3.9,1.46-5.84l-.57-.21L20.86,48.1,20.47,48c1.27-5.4,2.55-10.79,3.88-16.43A66.29,66.29,0,0,0,15,51.42,55.88,55.88,0,0,1,22.2,27.6C28.73,16.36,38.48,8.85,50.6,4.46,59.32,1.31,71.6-.63,74.32.37Z"/><path class="cls-3" d="M10.53,122.35l.25.65-.5-.35Z"/><path class="cls-3" d="M26,70l-.35.93-.37-.15.37-.92Z"/><path class="cls-3" d="M26.93,68.7l.29-.44c.07.09.22.19.2.25a1.62,1.62,0,0,1-.24.42Z"/></g></g></svg>